<svg version="1.1" xmlns="http://www.w3.org/2000/svg" xmlns:xlink="http://www.w3.org/1999/xlink" x="0px" y="0px"
   viewBox="0 0 216 216" style="enable-background:new 0 0 216 216;" xml:space="preserve" id="icon">
<defs>
  <style type="text/css">
    .st0{fill:#FFFFFF;}
    .circle{fill:#ccc;}
    .st2{fill:#FFFFFF;stroke:#ccc;stroke-width:8;stroke-miterlimit:10;}
    .st3{fill:none;stroke:#ccc;stroke-width:8;stroke-miterlimit:10;}


    @media screen and (max-width:250px){
      #details {display:none;}
    }
    #icon:hover .circle{
      fill:#fff;
    }
    #icon:hover circle,
    #icon:hover .st0{
      fill:#262262;
    }
    #icon:hover .detail{
      fill:#262262;
      stroke:#fff
    }	
		#icon circle:first-of-type {
			transition: .4s;
			transform-origin: 50% 50%;
		}

		#icon.active circle:first-of-type {
			fill:262262;
			transform: scale(0)
		}
	</style>
	<script>
		let icon = document.querySelector('#icon');
		
		icon.addEventListener('click', function() {
			this.classList.toggle('active')
		})

	</script>
</defs>
<g id="circle">
  <g>
    <circle class="st0 target" cx="108" cy="108" r="104"/>
    <path class="circle target" d="M108,8c55.14,0,100,44.86,100,100s-44.86,100-100,100S8,163.14,8,108S52.86,8,108,8 M108,0
      C48.35,0,0,48.35,0,108s48.35,108,108,108s108-48.35,108-108S167.65,0,108,0L108,0z"/>
  </g>
  <g>
    <path class="st0 target" d="M85.73,122.23c-8.55,0-16.58-3.33-22.63-9.37c-6.04-6.04-9.37-14.08-9.37-22.63s3.33-16.58,9.37-22.63
      c6.04-6.04,14.08-9.37,22.63-9.37s16.58,3.33,22.63,9.37c12.48,12.48,12.48,32.78,0,45.25C102.31,118.9,94.27,122.23,85.73,122.23
      z"/>
    <path class="circle target" d="M85.73,62.23c7.48,0,14.51,2.91,19.8,8.2c10.92,10.92,10.92,28.68,0,39.6c-5.29,5.29-12.32,8.2-19.8,8.2
      s-14.51-2.91-19.8-8.2c-10.92-10.92-10.92-28.68,0-39.6C71.22,65.14,78.25,62.23,85.73,62.23 M85.73,54.23
      c-9.21,0-18.43,3.51-25.46,10.54c-14.06,14.06-14.06,36.85,0,50.91c7.03,7.03,16.24,10.54,25.46,10.54s18.43-3.51,25.46-10.54
      c14.06-14.06,14.06-36.85,0-50.91C104.15,57.74,94.94,54.23,85.73,54.23L85.73,54.23z"/>
  </g>
  <g>
    <path class="st0 target" d="M146.18,160.18c-2.54,0-4.92-0.99-6.72-2.78l-31.82-31.82c-3.7-3.7-3.7-9.73,0-13.44
      c1.79-1.79,4.18-2.78,6.72-2.78c2.54,0,4.92,0.99,6.72,2.78l31.82,31.82c1.79,1.79,2.78,4.18,2.78,6.72s-0.99,4.92-2.78,6.72
      C151.11,159.2,148.72,160.18,146.18,160.18z"/>
    <path class="circle target" d="M114.36,113.36c1.47,0,2.85,0.57,3.89,1.61l31.82,31.82c2.14,2.14,2.14,5.63,0,7.78
      c-1.04,1.04-2.42,1.61-3.89,1.61c-1.47,0-2.85-0.57-3.89-1.61l-31.82-31.82c-2.14-2.14-2.14-5.63,0-7.78
      C111.51,113.94,112.89,113.36,114.36,113.36 M114.36,105.36c-3.45,0-6.91,1.32-9.55,3.95l0,0c-5.27,5.27-5.27,13.82,0,19.09
      l31.82,31.82c2.64,2.64,6.09,3.95,9.55,3.95c3.45,0,6.91-1.32,9.55-3.95l0,0c5.27-5.27,5.27-13.82,0-19.09l-31.82-31.82
      C121.27,106.68,117.82,105.36,114.36,105.36L114.36,105.36z"/>
  </g>
</g>
<g id="details">
  <path class="st2 detail" d="M74.41,101.54c-7.02-7.02-7.02-18.44,0-25.46"/>
  <g>
    <line class="st3 detail" x1="108" y1="131.59" x2="127.09" y2="112.5"/>
  </g>
</g>
</svg>
