<svg version="1.1" xmlns="http://www.w3.org/2000/svg" xmlns:xlink="http://www.w3.org/1999/xlink" x="0px" y="0px" width="150px"
	 height="251.111px" viewBox="0 0 150 251.111" style="enable-background:new 0 0 150 251.111;" xml:space="preserve" id="bigpadsvg">
<style type="text/css">

	.st0{fill:#E6E7E8;}
	.st1{fill:#231F20;}
	.st2{fill:none;stroke:#FFFFFF;stroke-width:4;stroke-miterlimit:10;}
	.st3{fill:none;stroke:#BCBEC0;stroke-width:4;stroke-miterlimit:10;}
	.st4{fill:#231F20;stroke:#000000;stroke-width:9;stroke-miterlimit:10;}	

</style>

<g id="big_x5F_pad">
	<g>
		<g>
			<path class="st0" d="M12,242.611c-1.93,0-3.5-1.57-3.5-3.5v-227c0-1.93,1.57-3.5,3.5-3.5h128c1.93,0,3.5,1.57,3.5,3.5v227
				c0,1.93-1.57,3.5-3.5,3.5H12z"/>
			<path class="st1" d="M139,13.111v225H13v-225H139 M140,4.111H12c-4.418,0-8,3.582-8,8v227c0,4.418,3.582,8,8,8h128
				c4.418,0,8-3.582,8-8v-227C148,7.693,144.418,4.111,140,4.111L140,4.111z"/>
		</g>
		<line class="st2" x1="13.301" y1="15.7" x2="138.589" y2="15.7"/>
		<line class="st3" x1="136.325" y1="234.345" x2="136.325" y2="13.164"/>
		<line class="st2" x1="15.566" y1="17.965" x2="15.566" y2="238.126"/>
		<line class="st3" x1="13.301" y1="236.603" x2="138.589" y2="236.603"/>
	</g>
</g>
<g id="lines">
	<line id="line1" class="st4" x1="29.5" y1="32.055" x2="125.5" y2="32.055"/>
	<line id="line2" class="st4" x1="29.5" y1="53.555" x2="125.5" y2="53.555"/>
	<line id="line3" class="st4" x1="29.5" y1="75.055" x2="125.5" y2="75.055"/>
	<line id="line4" class="st4" x1="29.5" y1="96.555" x2="125.5" y2="96.555"/>
	<line id="line5" class="st4" x1="29.5" y1="118.055" x2="95.5" y2="118.055"/>
</g>
</svg>
