<svg xmlns="http://www.w3.org/2000/svg" xmlns:xlink="http://www.w3.org/1999/xlink" viewBox="0 0 800 800">
  <defs>
    <clipPath id="clip-path" transform="translate(40 40)">
      <circle cx="360" cy="360" r="360" style="fill: none"/>
    </clipPath>
  </defs>
  <g id="Layer_2" data-name="Layer 2">
    <g id="Layer_1-2" data-name="Layer 1">
      <g id="Scientist_1" data-name="Scientist 1">
        <g style="clip-path: url(#clip-path)">
          <g id="Science_BG" data-name="Science BG">
            <rect width="800" height="800" style="fill: #0063c0"/>
            <g>
              <g>
                <polygon points="149.43 237.35 118.63 237.35 118.63 183.57 149.43 183.57 167.91 210.46 149.43 237.35" style="fill: #0078ea"/>
                <polygon points="246.19 237.35 164.55 237.35 183.03 210.46 164.55 183.57 246.19 183.57 246.19 237.35" style="fill: #0078ea"/>
              </g>
              <rect x="163.64" y="536.72" width="636.36" height="25.83" style="fill: #0078ea"/>
              <path d="M658,479.11,625,422V377.42h0a7.12,7.12,0,0,0,7.11-7.11h0A7.11,7.11,0,0,0,625,363.2H604.16a7.11,7.11,0,0,0-7.11,7.11h0a7.12,7.12,0,0,0,7.11,7.11h0V422l-33,57.16a11.74,11.74,0,0,0,10.17,17.61h66.48A11.74,11.74,0,0,0,658,479.11Z" transform="translate(40 40)" style="fill: #0078ea"/>
              <path d="M486.88,376.2V318.34a10.61,10.61,0,0,0,10.62-10.62h0a10.61,10.61,0,0,0-10.62-10.61H455.81a10.61,10.61,0,0,0-10.61,10.61h0a10.61,10.61,0,0,0,10.61,10.62V376.2a64,64,0,1,0,31.07,0Z" transform="translate(40 40)" style="fill: #0078ea"/>
              <g>
                <circle cx="493.25" cy="204.35" r="12.46" style="fill: #0078ea"/>
                <circle cx="556.42" cy="313.37" r="12.46" style="fill: #0078ea"/>
                <circle cx="477.93" cy="263.52" r="24.25" style="fill: #0078ea"/>
                <polyline points="493.25 204.35 477.93 263.52 586.85 205.24 556.42 313.37" style="fill: none;stroke: #0078ea;stroke-miterlimit: 10;stroke-width: 7.17697243189086px"/>
                <circle cx="586.85" cy="205.24" r="36.79" style="fill: #0063c0;stroke: #0078ea;stroke-miterlimit: 10;stroke-width: 7.17697243189086px"/>
              </g>
              <g>
                <circle cx="147.37" cy="370.92" r="12.46" style="fill: #0078ea"/>
                <circle cx="84.86" cy="394.84" r="24.25" style="fill: #0078ea"/>
                <polyline points="86.43 390.7 150.41 371 98.7 297.91" style="fill: none;stroke: #0078ea;stroke-miterlimit: 10;stroke-width: 7.17697243189086px"/>
                <circle cx="98.71" cy="297.91" r="36.79" style="fill: #0063c0;stroke: #0078ea;stroke-miterlimit: 10;stroke-width: 7.17697243189086px"/>
              </g>
            </g>
          </g>
          <g id="Scientist">
            <g id="l_Hand" data-name="l Hand">
              <path d="M558.91,595.09,390.07,718.48c-25.89,14.06-62.39-3.1-72.34-21.41h0a53.35,53.35,0,0,1,21.41-72.34l192.63-79.58c13.8-7.49,28.6-6.9,38.54,11.4h0A28.41,28.41,0,0,1,558.91,595.09Z" transform="translate(40 40)" style="fill: #d68671"/>
              <path d="M592.5,494.49s-45.29,8.43-56.3,17.13-26,51.25-26,51.25l4.21,10.35c9.77,24,40.22,31.91,60.12,15.24,9.17-7.68,18.45-20.63,24.51-30.51,19.44-31.71,46.78-81.69,39.51-99.26Z" transform="translate(40 40)" style="fill: #d68671"/>
              <g id="phone">
                <path d="M564.44,551.9a9.69,9.69,0,0,1-2.33-.44l-37.33-12.29a9,9,0,0,1-6.27-6.21c-.92-3.15-2.12-8.06,0-10.57L643.93,382.06A9.79,9.79,0,0,1,654.41,379l30.25,6.13c3.12,1,8.79,7.92,9.71,11.06a9.82,9.82,0,0,1-1.9,9L572.58,548.41a9.82,9.82,0,0,1-8.14,3.49Z" transform="translate(40 40)" style="fill: #ccd8ee"/>
                <path d="M560.18,547.06a9.77,9.77,0,0,1-2.33-.43L524.35,536a9.81,9.81,0,0,1-4.56-15.64L639.68,377.22a9.86,9.86,0,0,1,8.15-3.49,9.61,9.61,0,0,1,2.32.44l33.51,10.59a9.82,9.82,0,0,1,4.56,15.65L568.33,543.57a9.83,9.83,0,0,1-8.15,3.49Z" transform="translate(40 40)" style="fill: #fff"/>
                <path d="M642.47,379.56,522.59,522.73a6.16,6.16,0,0,0,2.86,9.83L559,543.15a6.15,6.15,0,0,0,6.58-1.92L685.42,398.07a6.16,6.16,0,0,0-2.86-9.83l-33.51-10.6A6.18,6.18,0,0,0,642.47,379.56Z" transform="translate(40 40)" style="fill: #34294c"/>
                <path d="M682.56,388.24l-24.68-7.81c8.09,21.05-12.5,57.9-51.84,111.27l.45.63,78.93-94.26A6.16,6.16,0,0,0,682.56,388.24Z" transform="translate(40 40)" style="fill: #6063c0"/>
              </g>
            </g>
            <g id="Head">
              <g id="neck">
                <rect x="198.91" y="181.36" width="122.86" height="270.18" rx="61.43" transform="translate(206.65 -42.48) rotate(26.23)" style="fill: #ffbeb0"/>
                <path d="M298.62,377.76l21.79-44.23L260.91,228.7s-23.32,50.76-13.31,81.93S298.62,377.76,298.62,377.76Z" transform="translate(40 40)" style="fill: #d68671"/>
              </g>
              <g id="head-2" data-name="head">
                <path d="M262.42,224.49c-.09-5.54,0-11.66-.38-15.26-1.48-14.79-19-23.77-33.2-19.59-24,7.05-18.5,31.55-10.57,42.62,11.25,15.68,25,25.57,35.94,22.71,8.71-2.28,8.11-9.21,8.21-10.52C262.43,244.34,262.49,228.59,262.42,224.49Z" transform="translate(40 40)" style="fill: #d68671"/>
                <path d="M418.46,215.39c11.1-42.12-24.3-105.72-83.22-121.25s-120.67,12.66-134.19,64c-10.31,39.1,20.08,74.54,46.44,92.22l1.57,37.84c.38,8.87,11.41,37.14,70.27,86.89,10.27,8.68,19.42,14.58,32.64,13.1,17.71-2,27.32-16.52,28.8-34.28,1-11.8,1.82-20.8,9.81-46.68,1.38-4.49,6.33-6.24,18-8.84,6-1.34,8.5-5.82,8.27-11.21-.41-9.64-10.89-31.69.89-69.14C418,217.12,418.23,216.26,418.46,215.39Z" transform="translate(40 40)" style="fill: #ffbeb0"/>
                <path d="M383.62,333c-4.57-.14-12.48.7-15.27,7.61,0,0-50.73-33.23-62.53-53.17s-20.31-49.07-20.31-49.07l-36.1-20.08-2.57,9.28,1.74,49.39.48,11.24c.38,8.87,11.41,37.14,70.27,86.89,10.27,8.68,19.42,14.58,32.64,13.1,17.71-2,27.32-16.52,28.8-34.28A149.5,149.5,0,0,1,383.62,333Z" transform="translate(40 40)" style="fill: #fff;opacity: 0.5"/>
                <path d="M331.05,313.19c5.59,4.59,11.37,9,16.67,12.91,7.28-9,20.53-13.85,40.17-9.93.79-2.75,1.68-5.74,2.69-9C356.38,290.3,338.6,303.73,331.05,313.19Z" transform="translate(40 40)" style="fill: #fff;opacity: 0.68"/>
                <path id="hair" d="M234.39,231l-18.17,36.15c2.45-15.86-1.51-20.19-16-53.69-21.33-49.41-9.34-94.13,25.63-121.63,43.41-34.14,94.53-28.41,158.49,11.91,50.14,31.6,49.9,59.39,35.43,84.89a136.09,136.09,0,0,0-12.49-36.92s-.1,18.06-18.13,23.51c9.84-12.56-.53-26.64-.53-26.64s-8.06,22.17-30,17.87c14.23-13.64-11.26-34.78-37.8-39,9.6,16.77-13.3,49.48-34.19,59.81-2.26,2.76-4.57,38.93-1.1,51l-23.35-12.84C250.15,219.24,239.94,220.94,234.39,231Z" transform="translate(40 40)" style="fill: #fff"/>
                <path d="M262.43,225.64c0-.44,0-.84,0-1.15-.09-5.54,0-11.66-.38-15.26-1.48-14.79-19-23.77-33.2-19.59-24,7.05-18.5,31.55-10.57,42.62A87.24,87.24,0,0,0,228,243.73l22.37-44.51c6.8-.28,10.49-4.05,11.78,26.26Z" transform="translate(40 40)" style="fill: #bfa8a3"/>
                <g id="ear">
                  <path d="M264.59,216.88c-.08-5.54,0-11.66-.37-15.26-1.48-14.78-14.82-23.07-29-18.89-24,7.05-16.06,33.9-14,38.5,7.74,17.43,23.6,36.32,34.54,33.45,8.71-2.28,8.11-9.21,8.21-10.52C263.92,244.05,264.66,221,264.59,216.88Z" transform="translate(40 40)" style="fill: #ffbeb0"/>
                  <path d="M241.48,191.64c11.4,0,14.44,12.35,14.44,20.34-10.06,2.52-7.31,11.8-3.47,16.73a3.12,3.12,0,0,1-2.88,5c-10.61-1.35-16.14-10-9.19-17,5.25-5.24,6-11.59,3-15.83-3.68-5.09-11.1-4.44-15.39,2.22C228,199,231.85,191.64,241.48,191.64Z" transform="translate(40 40)" style="fill: #d68671;opacity: 0.38"/>
                </g>
                <ellipse id="eye" cx="376.23" cy="238.93" rx="10.02" ry="8.25" transform="translate(90.63 583.27) rotate(-75.48)" style="fill: #34294c"/>
                <path id="eyebrow" d="M357.66,214.24c14.18-.36,21.28-1.44,38.27,9.51a66.82,66.82,0,0,0,2.95-9.95,59.26,59.26,0,0,0-32.75-12.19A141.44,141.44,0,0,0,357.66,214.24Z" transform="translate(40 40)" style="fill: #fff"/>
              </g>
            </g>
            <g id="body">
              <path d="M78.78,489.46c10.66-105.77,70.74-140.29,70.74-140.29,69.94,0,192.65,97.14,282.08,410.83H96.79C85.45,691.33,67.34,603.09,78.78,489.46Z" transform="translate(40 40)" style="fill: #fff"/>
              <path d="M264.6,629.6,237,511.66l80,112.51S288.21,615,264.6,629.6Z" transform="translate(40 40)" style="fill: #ccd8ee"/>
              <path d="M196.64,301.91c45.14,24.17,85.24,72.89,96.22,98.26,2.49,27.29,3.46,47.69,3.46,47.69-40.83-59.68-91.35-106.19-125.56-128l4.39-10.34A15.43,15.43,0,0,1,196.64,301.91Z" transform="translate(40 40)" style="fill: #34294c"/>
              <path d="M141.53,354.93l16.7-33a10.59,10.59,0,0,1,14.64-4.08c26.85,15.47,99.69,55.34,155.22,186.62C256.68,413.74,243.6,385.33,141.53,354.93Z" transform="translate(40 40)" style="fill: #ccd8ee"/>
              <path d="M75.3,558.64c1.9,52.28,36.2,146.85,70.7,189.27-35.93,5.73-52.82-6.21-52.82-6.21S71.81,619.91,75.3,558.64Z" transform="translate(40 40)" style="fill: #ccd8ee"/>
              <path d="M126.58,412.78a106.61,106.61,0,0,1,34.55,5.68c-18.19-10.23-40.15-15.9-61.42-8-1,2.1-2,4.27-2.92,6.49A107.26,107.26,0,0,1,126.58,412.78Z" transform="translate(40 40)" style="fill: #ccd8ee"/>
              <path d="M358.79,573.17a12.47,12.47,0,0,0,4.74-.64q-5.36-11.41-10.9-22.5a12.62,12.62,0,0,0,6.16,23.14Z" transform="translate(40 40)" style="fill: #ccd8ee"/>
            </g>
            <g id="r_Arm" data-name="r Arm">
              <path d="M494.78,550.61,378.16,724.19c-19.54,22.06-59.71,18.37-75.3,4.56h0a53.35,53.35,0,0,1-4.56-75.3L452.24,512.92c10.4-11.75,24.52-16.24,40.11-2.42h0A28.41,28.41,0,0,1,494.78,550.61Z" transform="translate(40 40)" style="fill: #ffbeb0"/>
              <g id="r_hand" data-name="r hand">
                <path d="M438.59,474.24c13-14.3,34.06-31.26,39.39-35.34s11.87-.17,9,10.88-20.59,31.55-22,37.89-5.45,18-10.93,29.57-20.2,25.61-21.21.77C431.48,486,435,478.23,438.59,474.24Z" transform="translate(40 40)" style="fill: #de9799"/>
                <path d="M483.08,456c12.19-7.7,51.93,0,60.29,14.59,6.32,11-3.4,21.35-3.4,21.35,10.18,1.8,10.34,16.59,3.81,25.22s-22.66,28.2-34.08,41.11c-26.25,29.67-52.92,12.33-60.86,6.27-11.34-8.65-23.1-18.86-15.51-35.66S462.09,469.29,483.08,456Z" transform="translate(40 40)" style="fill: #ffbeb0"/>
                <path d="M574,425.34c2.37,8.21-6.41,14.54-14.9,18.05s-25.48,7.16-31.67,12.15-25.17,14.63-35.27,28c-6.6,8.71-18.93,11.55-24.52,7.53-4.73-3.4-6.21-12.46,1.32-21.16a136.22,136.22,0,0,1,54.33-37.44C540.58,426.13,572,418.19,574,425.34Z" transform="translate(40 40)" style="fill: #ffbeb0"/>
              </g>
            </g>
          </g>
        </g>
      </g>
    </g>
  </g>
</svg>
